REM DIRINDEX 1\2,1\3,1\4,1\5
REM DIRNAME "folder01","folder02","folder03","folder04","folder05"
TITLE ""
FILE "P1Q_t_0329-0338.mp3" MP3
  TRACK 01 AUDIO
    TITLE "3:cjc173_1910"
    INDEX 01 00:00:00
  TRACK 02 AUDIO
    TITLE "0:"
    INDEX 01 00:01:37
  TRACK 03 AUDIO
    TITLE "4:cjc173_1911"
    INDEX 01 00:01:63
  TRACK 04 AUDIO
    TITLE "0:"
    INDEX 01 00:04:26
  TRACK 05 AUDIO
    TITLE "5:cjc173_1912"
    INDEX 01 00:04:45
  TRACK 06 AUDIO
    TITLE "0:"
    INDEX 01 00:09:01
  TRACK 07 AUDIO
    TITLE "3:cjc173_1913"
    INDEX 01 00:09:48
  TRACK 08 AUDIO
    TITLE "0:"
    INDEX 01 00:10:69
  TRACK 09 AUDIO
    TITLE "4:cjc173_1914"
    INDEX 01 00:11:16
  TRACK 10 AUDIO
    TITLE "0:"
    INDEX 01 00:13:42
  TRACK 11 AUDIO
    TITLE "5:cjc173_1915"
    INDEX 01 00:13:62
  TRACK 12 AUDIO
    TITLE "0:"
    INDEX 01 00:18:40
  TRACK 13 AUDIO
    TITLE "3:cjc173_1916"
    INDEX 01 00:19:10
  TRACK 14 AUDIO
    TITLE "0:"
    INDEX 01 00:20:15
  TRACK 15 AUDIO
    TITLE "4:cjc173_1917"
    INDEX 01 00:20:37
  TRACK 16 AUDIO
    TITLE "0:"
    INDEX 01 00:21:50
  TRACK 17 AUDIO
    TITLE "5:cjc173_1918"
    INDEX 01 00:21:69
  TRACK 18 AUDIO
    TITLE "0:"
    INDEX 01 00:26:41
  TRACK 19 AUDIO
    TITLE "3:cjc173_1919"
    INDEX 01 00:27:13
  TRACK 20 AUDIO
    TITLE "0:"
    INDEX 01 00:28:38
  TRACK 21 AUDIO
    TITLE "4:cjc173_1920"
    INDEX 01 00:28:60
  TRACK 22 AUDIO
    TITLE "0:"
    INDEX 01 00:30:15
  TRACK 23 AUDIO
    TITLE "5:cjc173_1921"
    INDEX 01 00:30:35
  TRACK 24 AUDIO
    TITLE "0:"
    INDEX 01 00:36:02
  TRACK 25 AUDIO
    TITLE "3:cjc173_1922"
    INDEX 01 00:36:47
  TRACK 26 AUDIO
    TITLE "0:"
    INDEX 01 00:37:58
  TRACK 27 AUDIO
    TITLE "4:cjc173_1923"
    INDEX 01 00:38:07
  TRACK 28 AUDIO
    TITLE "0:"
    INDEX 01 00:40:25
  TRACK 29 AUDIO
    TITLE "5:cjc173_1924"
    INDEX 01 00:40:45
  TRACK 30 AUDIO
    TITLE "0:"
    INDEX 01 00:44:53
  TRACK 31 AUDIO
    TITLE "3:cjc173_1925"
    INDEX 01 00:45:23
  TRACK 32 AUDIO
    TITLE "0:"
    INDEX 01 00:46:46
  TRACK 33 AUDIO
    TITLE "4:cjc173_1926"
    INDEX 01 00:46:65
  TRACK 34 AUDIO
    TITLE "0:"
    INDEX 01 00:50:42
  TRACK 35 AUDIO
    TITLE "5:cjc173_1927"
    INDEX 01 00:50:67
  TRACK 36 AUDIO
    TITLE "0:"
    INDEX 01 00:54:63
  TRACK 37 AUDIO
    TITLE "3:cjc173_1928"
    INDEX 01 00:55:33
  TRACK 38 AUDIO
    TITLE "0:"
    INDEX 01 00:56:36
  TRACK 39 AUDIO
    TITLE "4:cjc173_1929"
    INDEX 01 00:56:64
  TRACK 40 AUDIO
    TITLE "0:"
    INDEX 01 00:58:74
  TRACK 41 AUDIO
    TITLE "5:cjc173_1930"
    INDEX 01 00:59:19
  TRACK 42 AUDIO
    TITLE "0:"
    INDEX 01 01:02:49
  TRACK 43 AUDIO
    TITLE "3:cjc173_1931"
    INDEX 01 01:03:21
  TRACK 44 AUDIO
    TITLE "0:"
    INDEX 01 01:04:57
  TRACK 45 AUDIO
    TITLE "4:cjc173_1932"
    INDEX 01 01:05:02
  TRACK 46 AUDIO
    TITLE "0:"
    INDEX 01 01:07:71
  TRACK 47 AUDIO
    TITLE "5:cjc173_1933"
    INDEX 01 01:08:16
  TRACK 48 AUDIO
    TITLE "0:"
    INDEX 01 01:13:52
  TRACK 49 AUDIO
    TITLE "3:cjc173_1934"
    INDEX 01 01:14:24
  TRACK 50 AUDIO
    TITLE "0:"
    INDEX 01 01:15:30
  TRACK 51 AUDIO
    TITLE "4:cjc173_1935"
    INDEX 01 01:15:53
  TRACK 52 AUDIO
    TITLE "0:"
    INDEX 01 01:23:39
  TRACK 53 AUDIO
    TITLE "5:cjc173_1936"
    INDEX 01 01:23:59
  TRACK 54 AUDIO
    TITLE "0:"
    INDEX 01 01:28:40
  TRACK 55 AUDIO
    TITLE "3:cjc173_1937"
    INDEX 01 01:29:12
  TRACK 56 AUDIO
    TITLE "0:"
    INDEX 01 01:29:75
  TRACK 57 AUDIO
    TITLE "4:cjc173_1938"
    INDEX 01 01:30:25
  TRACK 58 AUDIO
    TITLE "0:"
    INDEX 01 01:32:42
  TRACK 59 AUDIO
    TITLE "5:cjc173_1939"
    INDEX 01 01:32:65
  TRACK 60 AUDIO
    TITLE "0:"
    INDEX 01 01:36:69
